<svg xmlns="http://www.w3.org/2000/svg">
  <symbol id="svg-empty"  viewBox="0 0 39 41">
    <title>无内容提示</title>
    <g id="Page-1" stroke="none" stroke-width="1" fill="none" fill-rule="evenodd">
        <g id="爱定期_持有中_无" transform="translate(-168.000000, -336.000000)" fill-rule="nonzero" fill="#DDDDDD">
            <g id="无回款计划-icon" transform="translate(168.000000, 336.000000)">
              <path d="M26.3197798,0.733007787 L27,1 L26.6074915,1 L26.3197798,0.733007787 Z M36.4901899,10.1709961 L36.1704247,9.43258914 L36.168052,9.87205687 L36.4901899,10.1709961 Z M36.168052,9.87205687 L36.1372643,15.5742979 L37.1372497,15.579697 L37.1704102,9.43798828 L27,0 L4,0 C1.790861,0 0,1.790861 0,4 L0,37 C0,39.209139 1.790861,41 4,41 L30.9909668,41 L30.9909668,40 L4,40 C2.34314575,40 1,38.6568542 1,37 L1,4 C1,2.34314575 2.34314575,1 4,1 L26.6074915,1 L36.168052,9.87205687 Z M36.1704247,9.43258914 L36.4901899,10.1709961 L36.168052,9.87205687 L36.1704247,9.43258914 Z M27,1 L26.3197798,0.733007787 L26.6074915,1 L27,1 Z M36.1372643,15.5742979 L37.1372497,15.579697 L37.1704102,9.43798828 L27,0 L4,0 C1.790861,0 0,1.790861 0,4 L0,37 C0,39.209139 1.790861,41 4,41 L30.9909668,41 L30.9909668,40 L4,40 C2.34314575,40 1,38.6568542 1,37 L1,4 C1,2.34314575 2.34314575,1 4,1 L26.6074915,1 L36.168052,9.87205687 L36.1372643,15.5742979 Z" id="Path"></path>
              <path d="M29.7850551,30.4368026 C34.2033331,30.4368026 37.7850551,26.8550806 37.7850551,22.4368026 C37.7850551,18.0185246 34.2033331,14.4368026 29.7850551,14.4368026 C25.3667771,14.4368026 21.7850551,18.0185246 21.7850551,22.4368026 C21.7850551,26.8550806 25.3667771,30.4368026 29.7850551,30.4368026 Z M29.7850551,31.4368026 C24.8144923,31.4368026 20.7850551,27.4073653 20.7850551,22.4368026 C20.7850551,17.4662398 24.8144923,13.4368026 29.7850551,13.4368026 C34.7556178,13.4368026 38.7850551,17.4662398 38.7850551,22.4368026 C38.7850551,27.4073653 34.7556178,31.4368026 29.7850551,31.4368026 Z M29.2850551,31.4368026 L30.2850551,31.4368026 L30.2850551,42.9368026 L29.2850551,42.9368026 L29.2850551,31.4368026 Z" id="Combined-Shape" transform="translate(29.785055, 28.186803) rotate(-37.000000) translate(-29.785055, -28.186803) "></path>
              <path d="M26.0021941,0.657692286 L27.0021912,0.655295995 L27.0171189,6.88477491 C27.0204219,8.26314388 28.1387388,9.37878418 29.5171117,9.37878418 L36.7259521,9.37878418 L36.7259521,10.3787842 L29.5171117,10.3787842 C27.5873896,10.3787842 26.0217459,8.81688776 26.0171218,6.8871712 L26.0021941,0.657692286 Z M6,9.5 L6,8.5 L23.0306222,8.5 L23.0306222,9.5 L6,9.5 Z M6,15 L6,14 L16.5,14 L16.5,15 L6,15 Z M6,20 L6,19 L13,19 L13,20 L6,20 Z" id="Combined-Shape"></path>
          </g>
      </g>
  </g>
  </symbol>
</svg>