<svg xmlns="http://www.w3.org/2000/svg">
  <symbol id="svg-empty"  viewBox="0 0 39 41">
    <title>无内容提示</title>
    <g id="Page-1" stroke="none" stroke-width="1" fill="none" fill-rule="evenodd">
        <g id="爱定期_持有中_无" transform="translate(-168.000000, -336.000000)" fill-rule="nonzero" fill="#DDDDDD">
            <g id="无回款计划-icon" transform="translate(168.000000, 336.000000)">
              <path d="M26.3197798,0.733007787 L27,1 L26.6074915,1 L26.3197798,0.733007787 Z M36.4901899,10.1709961 L36.1704247,9.43258914 L36.168052,9.87205687 L36.4901899,10.1709961 Z M36.168052,9.87205687 L36.1372643,15.5742979 L37.1372497,15.579697 L37.1704102,9.43798828 L27,0 L4,0 C1.790861,0 0,1.790861 0,4 L0,37 C0,39.209139 1.790861,41 4,41 L30.9909668,41 L30.9909668,40 L4,40 C2.34314575,40 1,38.6568542 1,37 L1,4 C1,2.34314575 2.34314575,1 4,1 L26.6074915,1 L36.168052,9.87205687 Z M36.1704247,9.43258914 L36.4901899,10.1709961 L36.168052,9.87205687 L36.1704247,9.43258914 Z M27,1 L26.3197798,0.733007787 L26.6074915,1 L27,1 Z M36.1372643,15.5742979 L37.1372497,15.579697 L37.1704102,9.43798828 L27,0 L4,0 C1.790861,0 0,1.790861 0,4 L0,37 C0,39.209139 1.790861,41 4,41 L30.9909668,41 L30.9909668,40 L4,40 C2.34314575,40 1,38.6568542 1,37 L1,4 C1,2.34314575 2.34314575,1 4,1 L26.6074915,1 L36.168052,9.87205687 L36.1372643,15.5742979 Z" id="Path"></path>
              <path d="M29.7850551,30.4368026 C34.2033331,30.4368026 37.7850551,26.8550806 37.7850551,22.4368026 C37.7850551,18.0185246 34.2033331,14.4368026 29.7850551,14.4368026 C25.3667771,14.4368026 21.7850551,18.0185246 21.7850551,22.4368026 C21.7850551,26.8550806 25.3667771,30.4368026 29.7850551,30.4368026 Z M29.7850551,31.4368026 C24.8144923,31.4368026 20.7850551,27.4073653 20.7850551,22.4368026 C20.7850551,17.4662398 24.8144923,13.4368026 29.7850551,13.4368026 C34.7556178,13.4368026 38.7850551,17.4662398 38.7850551,22.4368026 C38.7850551,27.4073653 34.7556178,31.4368026 29.7850551,31.4368026 Z M29.2850551,31.4368026 L30.2850551,31.4368026 L30.2850551,42.9368026 L29.2850551,42.9368026 L29.2850551,31.4368026 Z" id="Combined-Shape" transform="translate(29.785055, 28.186803) rotate(-37.000000) translate(-29.785055, -28.186803) "></path>
              <path d="M26.0021941,0.657692286 L27.0021912,0.655295995 L27.0171189,6.88477491 C27.0204219,8.26314388 28.1387388,9.37878418 29.5171117,9.37878418 L36.7259521,9.37878418 L36.7259521,10.3787842 L29.5171117,10.3787842 C27.5873896,10.3787842 26.0217459,8.81688776 26.0171218,6.8871712 L26.0021941,0.657692286 Z M6,9.5 L6,8.5 L23.0306222,8.5 L23.0306222,9.5 L6,9.5 Z M6,15 L6,14 L16.5,14 L16.5,15 L6,15 Z M6,20 L6,19 L13,19 L13,20 L6,20 Z" id="Combined-Shape"></path>
          </g>
      </g>
  </g>
  </symbol>
  <symbol id="svg-earphone"  viewBox="0 0 1024 1024">
    <title>同机</title>
    <path d="M65.056 736.192c0-85.696 56.96-119.68 100.096-133.28-8.32 41.664-11.904 88.864-11.904 133.28 0 45.984 3.936 94.88 12.896 137.632-28.16-5.696-51.072-16.896-67.456-34.464-37.472-40.16-33.76-100.16-33.632-103.168m859.904 103.168c-16.384 17.6-39.296 28.8-67.456 34.464 8.96-42.752 12.896-91.648 12.896-137.6 0-44.352-3.616-91.392-11.872-132.992 42.88 13.92 100.096 48.672 100.16 135.36 0 0.576 3.712 60.608-33.728 100.8m-152.576 85.536c-13.792-19.84-33.984-85.12-33.984-188.736 0-103.616 20.16-168.896 33.984-188.768 13.76 19.872 34.016 85.152 34.016 188.8 0 103.552-20.224 168.832-34.016 188.704M251.264 547.424c13.76 19.872 33.984 85.152 33.984 188.8 0 103.552-20.192 168.832-33.984 188.704-13.792-19.84-34.016-85.12-34.016-188.736 0-103.616 20.224-168.896 34.016-188.768M187.776 941.536c15.168 31.456 35.936 51.648 63.488 51.648 72.32 0 97.984-138.432 97.984-256.96 0-118.624-25.664-257.056-97.984-257.056-27.968 0-48.896 20.864-64.128 53.12a261.408 261.408 0 0 0-55.104 14.56v-197.824c8.544-32.832 82.24-277.888 377.216-277.888 295.36 0 366.08 247.68 374.016 279.712v193.024a259.136 259.136 0 0 0-46.752-11.584c-15.232-32.256-36.16-53.12-64.128-53.12-72.32 0-97.984 138.432-97.984 257.024 0 118.56 25.664 256.992 97.984 256.992 27.52 0 48.32-20.16 63.488-51.648 57.824-3.904 103.68-23.68 136.448-59.104 56.416-61.056 50.464-145.216 50.24-146.24 0-76.576-33.152-126.88-75.296-158.656v-230.4l-0.704-6.688C945.824 337.12 870.944 7.136 509.248 7.136 147.84 7.136 69.568 334.816 68.8 338.08l-0.736 245.888c-38.08 31.68-66.976 79.456-66.944 149.696-0.32 3.552-6.24 87.712 50.176 148.8 32.736 35.392 78.624 55.168 136.448 59.072" p-id="2265" fill="#ffffff" />
  </symbol>
</svg>