<svg xmlns="http://www.w3.org/2000/svg">
  <symbol id="svg-empty"  viewBox="0 0 39 41">
    <title>无内容提示</title>
    <g id="Page-1" stroke="none" stroke-width="1" fill="none" fill-rule="evenodd">
        <g id="爱定期_持有中_无" transform="translate(-168.000000, -336.000000)" fill-rule="nonzero" fill="#DDDDDD">
            <g id="无回款计划-icon" transform="translate(168.000000, 336.000000)">
              <path d="M26.3197798,0.733007787 L27,1 L26.6074915,1 L26.3197798,0.733007787 Z M36.4901899,10.1709961 L36.1704247,9.43258914 L36.168052,9.87205687 L36.4901899,10.1709961 Z M36.168052,9.87205687 L36.1372643,15.5742979 L37.1372497,15.579697 L37.1704102,9.43798828 L27,0 L4,0 C1.790861,0 0,1.790861 0,4 L0,37 C0,39.209139 1.790861,41 4,41 L30.9909668,41 L30.9909668,40 L4,40 C2.34314575,40 1,38.6568542 1,37 L1,4 C1,2.34314575 2.34314575,1 4,1 L26.6074915,1 L36.168052,9.87205687 Z M36.1704247,9.43258914 L36.4901899,10.1709961 L36.168052,9.87205687 L36.1704247,9.43258914 Z M27,1 L26.3197798,0.733007787 L26.6074915,1 L27,1 Z M36.1372643,15.5742979 L37.1372497,15.579697 L37.1704102,9.43798828 L27,0 L4,0 C1.790861,0 0,1.790861 0,4 L0,37 C0,39.209139 1.790861,41 4,41 L30.9909668,41 L30.9909668,40 L4,40 C2.34314575,40 1,38.6568542 1,37 L1,4 C1,2.34314575 2.34314575,1 4,1 L26.6074915,1 L36.168052,9.87205687 L36.1372643,15.5742979 Z" id="Path"></path>
              <path d="M29.7850551,30.4368026 C34.2033331,30.4368026 37.7850551,26.8550806 37.7850551,22.4368026 C37.7850551,18.0185246 34.2033331,14.4368026 29.7850551,14.4368026 C25.3667771,14.4368026 21.7850551,18.0185246 21.7850551,22.4368026 C21.7850551,26.8550806 25.3667771,30.4368026 29.7850551,30.4368026 Z M29.7850551,31.4368026 C24.8144923,31.4368026 20.7850551,27.4073653 20.7850551,22.4368026 C20.7850551,17.4662398 24.8144923,13.4368026 29.7850551,13.4368026 C34.7556178,13.4368026 38.7850551,17.4662398 38.7850551,22.4368026 C38.7850551,27.4073653 34.7556178,31.4368026 29.7850551,31.4368026 Z M29.2850551,31.4368026 L30.2850551,31.4368026 L30.2850551,42.9368026 L29.2850551,42.9368026 L29.2850551,31.4368026 Z" id="Combined-Shape" transform="translate(29.785055, 28.186803) rotate(-37.000000) translate(-29.785055, -28.186803) "></path>
              <path d="M26.0021941,0.657692286 L27.0021912,0.655295995 L27.0171189,6.88477491 C27.0204219,8.26314388 28.1387388,9.37878418 29.5171117,9.37878418 L36.7259521,9.37878418 L36.7259521,10.3787842 L29.5171117,10.3787842 C27.5873896,10.3787842 26.0217459,8.81688776 26.0171218,6.8871712 L26.0021941,0.657692286 Z M6,9.5 L6,8.5 L23.0306222,8.5 L23.0306222,9.5 L6,9.5 Z M6,15 L6,14 L16.5,14 L16.5,15 L6,15 Z M6,20 L6,19 L13,19 L13,20 L6,20 Z" id="Combined-Shape"></path>
          </g>
      </g>
  </g>
  </symbol>
  <symbol id="svg-earphone"  viewBox="0 0 1024 1024">
    <title>同机</title>
    <path d="M65.056 736.192c0-85.696 56.96-119.68 100.096-133.28-8.32 41.664-11.904 88.864-11.904 133.28 0 45.984 3.936 94.88 12.896 137.632-28.16-5.696-51.072-16.896-67.456-34.464-37.472-40.16-33.76-100.16-33.632-103.168m859.904 103.168c-16.384 17.6-39.296 28.8-67.456 34.464 8.96-42.752 12.896-91.648 12.896-137.6 0-44.352-3.616-91.392-11.872-132.992 42.88 13.92 100.096 48.672 100.16 135.36 0 0.576 3.712 60.608-33.728 100.8m-152.576 85.536c-13.792-19.84-33.984-85.12-33.984-188.736 0-103.616 20.16-168.896 33.984-188.768 13.76 19.872 34.016 85.152 34.016 188.8 0 103.552-20.224 168.832-34.016 188.704M251.264 547.424c13.76 19.872 33.984 85.152 33.984 188.8 0 103.552-20.192 168.832-33.984 188.704-13.792-19.84-34.016-85.12-34.016-188.736 0-103.616 20.224-168.896 34.016-188.768M187.776 941.536c15.168 31.456 35.936 51.648 63.488 51.648 72.32 0 97.984-138.432 97.984-256.96 0-118.624-25.664-257.056-97.984-257.056-27.968 0-48.896 20.864-64.128 53.12a261.408 261.408 0 0 0-55.104 14.56v-197.824c8.544-32.832 82.24-277.888 377.216-277.888 295.36 0 366.08 247.68 374.016 279.712v193.024a259.136 259.136 0 0 0-46.752-11.584c-15.232-32.256-36.16-53.12-64.128-53.12-72.32 0-97.984 138.432-97.984 257.024 0 118.56 25.664 256.992 97.984 256.992 27.52 0 48.32-20.16 63.488-51.648 57.824-3.904 103.68-23.68 136.448-59.104 56.416-61.056 50.464-145.216 50.24-146.24 0-76.576-33.152-126.88-75.296-158.656v-230.4l-0.704-6.688C945.824 337.12 870.944 7.136 509.248 7.136 147.84 7.136 69.568 334.816 68.8 338.08l-0.736 245.888c-38.08 31.68-66.976 79.456-66.944 149.696-0.32 3.552-6.24 87.712 50.176 148.8 32.736 35.392 78.624 55.168 136.448 59.072" p-id="2265" fill="#ffffff" />
  </symbol>
  <symbol id="svg-play"  viewBox="0 0 1024 1024">
    <title>播放</title>
    <g>
      <path d="M909.892465 331.781731c-21.798121-51.476314-52.909055-97.631021-92.514092-137.236058-39.605037-39.605037-85.862083-70.818309-137.236058-92.514092-53.21607-22.514491-109.809314-33.976414-168.142315-33.976414S397.176094 79.414751 343.857685 102.031581c-51.476314 21.798121-97.631021 52.909055-137.236058 92.514092s-70.818309 85.862083-92.514092 137.236058c-22.514491 53.21607-33.976414 109.809314-33.976414 168.142315s11.461923 114.823906 33.976414 168.142315c21.798121 51.476314 52.909055 97.631021 92.514092 137.236058 39.605037 39.605037 85.862083 70.818309 137.236058 92.514092 53.21607 22.514491 109.809314 33.976414 168.142315 33.976414s114.823906-11.461923 168.142315-33.976414c51.476314-21.798121 97.631021-52.909055 137.236058-92.514092 39.605037-39.605037 70.818309-85.862083 92.514092-137.236058 22.514491-53.21607 33.976414-109.809314 33.976414-168.142315S932.509294 385.10014 909.892465 331.781731zM512 886.763942c-213.273636 0-386.839896-173.56626-386.839896-386.839896s173.56626-386.839896 386.839896-386.839896 386.839896 173.56626 386.839896 386.839896S725.273636 886.763942 512 886.763942z"  fill="#999"/>
      <path d="M641.355986 496.239856 458.681591 367.804917c-8.391765-5.8333-19.649011 0.102339-19.649011 10.336198l0 256.869878c0 10.23386 11.257246 16.169498 19.649011 10.336198l182.776734-128.434939C648.622027 511.897661 648.519688 501.254447 641.355986 496.239856z" fill="#999"/>
    </g>
  </symbol>
  <symbol id="svg-hot"  viewBox="0 0 1024 1024">
    <title>SQ</title>
    <g>
      <path d="M447.136 943.52c-3.36 0-6.752-0.544-10.112-1.664-139.04-46.4-234.784-169.536-244.224-310.752C192.256 628.864 192 626.528 192 624.128c0-158.208-53.792-217.12-54.336-217.696-8.992-9.536-11.424-23.808-5.856-35.68 5.568-11.872 17.92-19.392 30.72-18.56 9.952 0.608 98.592 6.72 144.48 37.312 22.112 14.72 40.384 42.048 54.08 68.672 47.552-138.944 24.64-356 24.352-358.56-1.376-12.608 4.8-24.8 15.744-31.168 10.944-6.336 24.608-5.664 34.848 1.76 8.768 6.368 186.336 136.128 267.776 268.768 4.096-31.232 5.024-72.512 1.568-112.064-1.152-13.088 5.824-25.568 17.6-31.424 11.744-5.888 25.952-3.968 35.68 4.832 5.984 5.344 145.696 134.368 138.72 408.608 0 125.6-68.448 242.912-178.624 305.376-12.288 6.976-27.776 5.056-38.016-4.8-10.176-9.856-12.704-25.216-6.176-37.792 10.656-20.48 16.032-41.664 16.032-62.976 1.792-70.208-83.648-146.784-151.552-194.464 6.176 54.88 7.456 125.568-18.528 163.84-5.024 7.36-12.896 12.32-21.728 13.664-8.96 1.184-17.824-1.152-24.768-6.688-0.352-0.288-34.848-27.872-66.496-45.6-15.392-8.64-20.928-28.128-12.288-43.52s28.128-20.896 43.552-12.288c13.28 7.392 26.688 16.128 38.432 24.256 4.608-42.752-3.104-108.672-12.448-151.84-2.656-12.256 2.08-24.928 12.128-32.416 10.016-7.52 23.52-8.448 34.528-2.4 25.088 13.792 243.136 137.856 243.168 284.48 49.792-52.768 78.752-123.296 78.752-197.632 3.328-131.84-30.944-226.08-63.328-285.056-3.936 48.64-16.032 98.912-47.008 119.648-8.352 5.568-18.848 6.944-28.416 3.584-9.504-3.328-16.864-10.976-19.904-20.576-28.736-91.328-148.544-200.672-220.64-260.032 4.16 102.432 0.48 286.944-69.088 388.544-6.944 10.08-19.168 15.232-31.104 13.568-12.096-1.824-22.144-10.368-25.824-22.048-10.816-34.304-35.52-88.96-56.544-102.944-11.2-7.456-29.856-13.376-49.696-17.76 16.16 38.56 31.68 96.48 33.888 178.976C255.904 605.344 256 606.72 256 608.128c0 121.216 82.752 233.504 201.248 273.056 16.768 5.6 25.824 23.712 20.224 40.48C472.992 935.072 460.512 943.52 447.136 943.52z" p-id="4740" fill="#d43c33"></path>
    </g>
  </symbol>
  <symbol id="svg-search"  viewBox="0 0 1024 1024">
    <title>搜索icon</title>
    <g><path d="M949.3504 794.0096l-227.328-227.371886a356.176457 356.176457 0 0 0 37.668571-159.700114c0-197.617371-160.768-358.4-358.4-358.4s-358.4 160.782629-358.4 358.4 160.768 358.4 358.4 358.4c60.854857 0 118.184229-15.286857 168.433372-42.144914l224.548571 222.500571c20.465371 20.48 47.733029 28.335543 76.770743 28.335543h0.555886c29.125486 0 56.554057-8.192 77.2096-28.8768 20.670171-20.655543 32.138971-45.041371 32.285257-74.181486a106.920229 106.920229 0 0 0-31.744-76.960914z m-248.4224-22.367086l71.8848-71.8848 23.215543 23.200915-71.767772 71.767771-23.332571-23.083886zM101.419886 406.9376c0-165.639314 134.261029-299.885714 299.885714-299.885714s299.885714 134.2464 299.885714 299.885714c0 165.653943-134.261029 299.885714-299.885714 299.885714s-299.885714-134.231771-299.885714-299.885714z m589.385143 210.929371l61.308342 61.2352-71.9872 71.972572-60.693942-60.035657a361.515886 361.515886 0 0 0 71.3728-73.172115z m216.634514 285.930058c-9.698743 9.684114-22.528 11.702857-36.1472 11.702857h-0.263314c-13.399771 0-25.965714-1.930971-35.401143-11.351772l-90.580115-89.219657 71.665372-71.504457 91.253028 91.2384c9.479314 9.479314 14.672457 21.123657 14.599315 34.640457-0.043886 13.604571-5.4272 24.7808-15.125943 34.494172z" fill="#c9c9ca" p-id="1056"></path><path d="M369.722514 171.329829c-5.705143 0-11.3664 0.234057-16.969143 0.687542a14.628571 14.628571 0 1 0 2.399086 29.169372c4.798171-0.394971 9.669486-0.599771 14.570057-0.599772a14.628571 14.628571 0 1 0 0-29.257142zM284.715886 189.8496a204.726857 204.726857 0 0 0-119.018057 185.534171 14.628571 14.628571 0 1 0 29.257142 0 175.396571 175.396571 0 0 1 101.961143-158.954057 14.628571 14.628571 0 1 0-12.200228-26.580114z" fill="#c9c9ca" p-id="1057"></path></g>
  </symbol>
  
</svg>